<?xml version="1.0" encoding="UTF-8"?>
<svg xmlns="http://www.w3.org/2000/svg" xmlns:xlink="http://www.w3.org/1999/xlink" width="1080" height="1920" viewBox="0 0 1080 1920">
  <defs>
    <filter id="shadow" x="-20%" y="-20%" width="140%" height="140%">
      <feDropShadow dx="0" dy="10" stdDeviation="18" flood-color="#18343a" flood-opacity=".08"/>
    </filter>
    <style>
      .t{font-family:system-ui,-apple-system,"PingFang SC","Noto Sans CJK SC",sans-serif;fill:#17364b}
      .muted{fill:#6d8388}.small{font-size:24px}.body{font-size:30px}.title{font-size:42px;font-weight:700}
      .strong{font-weight:700}.chip{fill:#eef4f2;stroke:#d7e4df;stroke-width:2}
      .glass{fill:#ffffff;fill-opacity:.78;stroke:#dfeae6;stroke-width:2}
      .line{stroke:#bfd0cb;stroke-width:2}.gold{fill:#a67a2b}
    </style>
  </defs>
  <image href="../../../../../system/backgrounds/morning_lake_v1/assets/Morning_Lake_Master_V1.png" x="0" y="0" width="1080" height="1920" preserveAspectRatio="xMidYMid slice"/>
  <rect width="1080" height="1920" fill="#fff" opacity=".30"/>
  
  
  <text class="t" x="70" y="165" font-size="58">‹</text>
  <rect class="glass" x="150" y="100" rx="32" ry="32" width="700" height="100"/>
  <text class="t" x="195" y="166" font-size="42">⌕</text>
  <text class="t body muted" x="245" y="165">搜索鱼种、地点或日期</text>
  <text class="t body strong" x="885" y="165">取消</text>
  <rect class="glass" x="80" y="240" rx="28" width="920" height="270"/>
  <text class="t body strong" x="120" y="305">最近搜索</text>
  <text class="t small muted" x="900" y="305" text-anchor="end">清空</text>
  <rect class="chip" x="120" y="345" rx="24" width="220" height="54"/><text class="t small strong" x="230" y="381" text-anchor="middle">草鱼</text><rect class="chip" x="400" y="345" rx="24" width="220" height="54"/><text class="t small strong" x="510" y="381" text-anchor="middle">千岛湖</text><rect class="chip" x="680" y="345" rx="24" width="220" height="54"/><text class="t small strong" x="790" y="381" text-anchor="middle">9月23日</text><rect class="chip" x="120" y="420" rx="24" width="220" height="54"/><text class="t small strong" x="230" y="456" text-anchor="middle">首条草鱼</text><rect class="chip" x="400" y="420" rx="24" width="220" height="54"/><text class="t small strong" x="510" y="456" text-anchor="middle">第100条</text><rect class="chip" x="680" y="420" rx="24" width="220" height="54"/><text class="t small strong" x="790" y="456" text-anchor="middle">最长</text>
  <text class="t title" x="80" y="590">2026年9月</text>
  
  <text class="t" x="80" y="676" font-size="62" font-weight="700">23</text>
  <text class="t small muted" x="90" y="710">SEP</text>
  <circle cx="205" cy="680" r="9" fill="#c49a45"/>
  <line class="line" x1="205" y1="692" x2="205" y2="1040"/>
  <text class="t small strong" x="240" y="678">千岛湖 · 3条鱼获 · 2种鱼</text>
  
  <rect class="glass" x="240" y="700" rx="28" width="760" height="150" filter="url(#shadow)"/>
  <rect x="260" y="720" rx="24" width="150" height="110" fill="#dce8e4"/>
  <path d="M290 778 q55 -35 110 0 q-55 35 -110 0z" fill="#7d9187" opacity=".85"/>
  <text class="t body strong" x="445" y="760">草鱼</text>
  <text class="t small muted" x="445" y="803">42.6 cm · 1.28 kg</text>
  <rect x="760" y="724" rx="18" width="150" height="42" fill="#f4ecda"/><text class="t small gold strong" x="835" y="753" text-anchor="middle">最长</text>
  <text class="t" x="955" y="788" font-size="44" fill="#7a9190">›</text>
  <rect class="glass" x="240" y="870" rx="28" width="760" height="150" filter="url(#shadow)"/>
  <rect x="260" y="890" rx="24" width="150" height="110" fill="#dce8e4"/>
  <path d="M290 948 q55 -35 110 0 q-55 35 -110 0z" fill="#7d9187" opacity=".85"/>
  <text class="t body strong" x="445" y="930">鲫鱼</text>
  <text class="t small muted" x="445" y="973">28.3 cm · 0.52 kg</text>
  
  <text class="t" x="955" y="958" font-size="44" fill="#7a9190">›</text>
  <rect class="glass" x="240" y="1040" rx="28" width="760" height="150" filter="url(#shadow)"/>
  <rect x="260" y="1060" rx="24" width="150" height="110" fill="#dce8e4"/>
  <path d="M290 1118 q55 -35 110 0 q-55 35 -110 0z" fill="#7d9187" opacity=".85"/>
  <text class="t body strong" x="445" y="1100">黄骨鱼</text>
  <text class="t small muted" x="445" y="1143">24.1 cm · 0.32 kg</text>
  <rect x="760" y="1064" rx="18" width="150" height="42" fill="#f4ecda"/><text class="t small gold strong" x="835" y="1093" text-anchor="middle">首条黄骨鱼</text>
  <text class="t" x="955" y="1128" font-size="44" fill="#7a9190">›</text>

  <g transform="translate(436 1685)">
    <image href="../../../../../system/components/primary_capture_button/assets/capture_button_base.png" x="0" y="0" width="208" height="208"/>
    <image href="../../../../../system/components/primary_capture_button/assets/capture_button_gold_rim.png" x="0" y="0" width="208" height="208"/>
  </g>
</svg>