<svg xmlns="http://www.w3.org/2000/svg" width="1320" height="590" viewBox="0 0 1320 590"><defs>
<style>
.bg{fill:#F7FAFB}.card{fill:#FFF;stroke:#E2EBE8;stroke-width:2}.media{fill:#294B5E}
.t{font-family:"Noto Sans SC","PingFang SC","Microsoft YaHei",sans-serif;fill:#18343A}
.title{font-size:34px;font-weight:700}.sub{font-size:18px;font-weight:500;fill:#71868B}
.k{font-size:15px;font-weight:800;fill:#71868B;letter-spacing:1px}.meta{font-size:14px;font-weight:500;fill:#7A8F93}
.state{font-size:16px;font-weight:800;fill:#71868B;text-anchor:middle}.note{font-size:14px;font-weight:500;fill:#61777C}
.icon{fill:none;stroke:#0B2D4B;stroke-width:5;stroke-linecap:round;stroke-linejoin:round}
.iconPressed{fill:none;stroke:#0F7A78;stroke-width:5;stroke-linecap:round;stroke-linejoin:round}
.iconDisabled{fill:none;stroke:#748897;stroke-opacity:.38;stroke-width:5;stroke-linecap:round;stroke-linejoin:round}
.iconMedia{fill:none;stroke:#F7FAFB;stroke-opacity:.94;stroke-width:5;stroke-linecap:round;stroke-linejoin:round}
</style>
</defs><rect class="bg" width="1320" height="590"/><text x="60" y="66" class="t title">04 · UTILITY 四态</text><text x="60" y="98" class="t sub">Share 为 canonical state example · Press 不缩放</text><rect x="70" y="160" width="270" height="280" rx="24" class="card"/><text x="205" y="205" class="t state">Normal</text><rect x="161" y="260" width="88" height="88" rx="18" fill="#FFFFFF" stroke="#E2EBE8" stroke-width="2"/><circle class="icon" cx="192" cy="304" r="7"/><circle class="icon" cx="219" cy="289" r="7"/><circle class="icon" cx="219" cy="319" r="7"/><path class="icon" d="M198 300 L212 293 M198 308 L212 316"/>
<rect x="370" y="160" width="270" height="280" rx="24" class="card"/><text x="505" y="205" class="t state">Pressed</text><rect x="461" y="260" width="88" height="88" rx="18" fill="#FFFFFF" stroke="#E2EBE8" stroke-width="2"/><circle class="iconPressed" cx="492" cy="304" r="7"/><circle class="iconPressed" cx="519" cy="289" r="7"/><circle class="iconPressed" cx="519" cy="319" r="7"/><path class="iconPressed" d="M498 300 L512 293 M498 308 L512 316"/>
<rect x="670" y="160" width="270" height="280" rx="24" class="card"/><text x="805" y="205" class="t state">Disabled</text><rect x="761" y="260" width="88" height="88" rx="18" fill="#FFFFFF" stroke="#E2EBE8" stroke-width="2"/><circle class="iconDisabled" cx="792" cy="304" r="7"/><circle class="iconDisabled" cx="819" cy="289" r="7"/><circle class="iconDisabled" cx="819" cy="319" r="7"/><path class="iconDisabled" d="M798 300 L812 293 M798 308 L812 316"/>
<rect x="970" y="160" width="270" height="280" rx="24" class="card"/><text x="1105" y="205" class="t state">Focus</text><rect x="1061" y="260" width="88" height="88" rx="18" fill="#FFFFFF" stroke="#E2EBE8" stroke-width="2"/><rect x="1057" y="256" width="96" height="96" rx="22" fill="none" stroke="#0F7A78" stroke-width="4"/><circle class="icon" cx="1092" cy="304" r="7"/><circle class="icon" cx="1119" cy="289" r="7"/><circle class="icon" cx="1119" cy="319" r="7"/><path class="icon" d="M1098 300 L1112 293 M1098 308 L1112 316"/><line x1="60" y1="538" x2="1260" y2="538" stroke="#DCE7E3" stroke-width="2"/><text x="60" y="568" class="t note">CANDIDATE · Icon Action V1 · review before freeze</text></svg>